Coordinates
version=1
nRows=4
nColumns=63
inDegrees=yes

Units are S.I. units (second, meters, Newtons, ...)
If the header above contains a line with 'inDegrees', this indicates whether rotational values are in degrees (yes) or radians (no).

endheader
time	pelvis_tilt	pelvis_list	pelvis_rotation	pelvis_tx	pelvis_ty	pelvis_tz	hip_flexion_r	hip_adduction_r	hip_rotation_r	knee_angle_r	knee_angle_r_beta	ankle_angle_r	subtalar_angle_r	mtp_angle_r	hip_flexion_l	hip_adduction_l	hip_rotation_l	knee_angle_l	knee_angle_l_beta	ankle_angle_l	subtalar_angle_l	mtp_angle_l	L5_S1_Flex_Ext	L5_S1_Lat_Bending	L5_S1_axial_rotation	L4_L5_Flex_Ext	L4_L5_Lat_Bending	L4_L5_axial_rotation	L3_L4_Flex_Ext	L3_L4_Lat_Bending	L3_L4_axial_rotation	L2_L3_Flex_Ext	L2_L3_Lat_Bending	L2_L3_axial_rotation	L1_L2_Flex_Ext	L1_L2_Lat_Bending	L1_L2_axial_rotation	L1_T12_Flex_Ext	L1_T12_Lat_Bending	L1_T12_axial_rotation	Abs_r3	Abs_r2	Abs_r1	Abs_t1	Abs_t2	neck_flexion	neck_bending	neck_rotation	arm_flex_r	arm_add_r	arm_rot_r	elbow_flex_r	pro_sup_r	wrist_flex_r	wrist_dev_r	arm_flex_l	arm_add_l	arm_rot_l	elbow_flex_l	pro_sup_l	wrist_flex_l	wrist_dev_l
      3.52542373	     -0.61731799	     -6.19762001	     87.97096320	      0.22983531	      0.78678669	      0.66630597	      4.39260633	     -0.81498045	    -15.65653534	     12.39584912	      0.21634838	     28.29084431	     17.84515758	      0.00000000	      2.99741658	     -0.36786778	      3.65330316	      9.17326620	      0.16010370	     14.34954070	    -14.60467773	      0.00000000	      0.10601109	     -0.04187843	     -0.35465577	      0.19687320	     -0.05569831	     -0.37682175	      0.17416563	     -0.10182322	     -0.37682175	      0.12116008	     -0.10182322	     -0.31032380	      0.09844190	     -0.08539850	     -0.28815781	      0.06057474	     -0.06486969	     -0.26599183	      0.75722665	     -0.47373720	     -1.97248899	      0.00000000	      0.00000000	     14.62597234	     -0.57139103	     -9.05785504	    -20.84048324	    -23.64812134	    -10.54024731	    101.58487830	     87.40014987	     -1.98824381	      4.75369203	      4.04889633	    -17.55819754	     61.68122208	     23.11535413	     48.02179693	     -6.50900899	     -8.55341581
      3.54237288	     -0.62960969	     -6.21696127	     87.91574517	      0.22988370	      0.78728958	      0.66735225	      4.49690813	     -0.85013019	    -15.59662918	     12.54902961	      0.21902188	     27.71792413	     17.79071021	      0.00000000	      3.11594783	     -0.36846876	      3.54750045	      9.21614965	      0.16085216	     14.16463094	    -14.55866441	      0.00000000	      0.11256915	     -0.04533027	     -0.38731608	      0.20905217	     -0.06028926	     -0.41152334	      0.18493986	     -0.11021603	     -0.41152334	      0.12865528	     -0.11021603	     -0.33890157	      0.10453171	     -0.09243749	     -0.31469432	      0.06432201	     -0.07021659	     -0.29048706	      0.80407020	     -0.51278512	     -2.15413585	      0.00000000	      0.00000000	     15.08603157	     -0.65610842	     -9.02591126	    -20.30153364	    -23.69618347	    -12.57240652	     99.46829010	     86.97589655	     -2.52289017	      5.85306122	      4.33130066	    -17.72883713	     61.56774710	     23.38374633	     48.25080672	     -6.42435572	     -8.69393482
      3.55932203	     -0.78331865	     -6.12698041	     87.81781576	      0.22978968	      0.78763293	      0.66859665	      4.58398628	     -1.05083485	    -15.36720927	     12.82623530	      0.22386004	     27.51460881	     17.53430724	      0.00000000	      3.20551467	     -0.21108949	      3.17855063	      9.40982849	      0.16423249	     14.16758492	    -14.38923880	      0.00000000	      0.09444444	     -0.06638476	     -0.38710042	      0.17539276	     -0.08829173	     -0.41129419	      0.15516276	     -0.16140791	     -0.41129419	      0.10794055	     -0.16140791	     -0.33871286	      0.08770110	     -0.13537181	     -0.31451909	      0.05396555	     -0.10283000	     -0.29032531	      0.67460716	     -0.75095770	     -2.15293638	      0.00000000	      0.00000000	     15.58059793	     -0.66123820	     -9.28802327	    -19.66524226	    -23.49955200	    -15.12151747	     97.66513291	     85.06759723	     -2.37837705	     11.61873044	      4.70960401	    -17.93439324	     61.24897679	     23.53822842	     49.94182355	     -5.86179444	     -8.61237819
      3.57627119	     -0.80086803	     -6.08515509	     87.53743218	      0.22968113	      0.78783176	      0.66911956	      4.66469356	     -1.10716580	    -15.12685922	     12.99904643	      0.22687616	     27.27857278	     17.42723094	      0.00000000	      3.23732232	     -0.21057917	      2.60451346	      9.54097845	      0.16652149	     14.33680201	    -13.87335598	      0.00000000	      0.09780922	     -0.06658898	     -0.49189313	      0.18164150	     -0.08856335	     -0.52263645	      0.16069077	     -0.16190445	     -0.52263645	      0.11178616	     -0.16190445	     -0.43040649	      0.09082564	     -0.13578825	     -0.39966317	      0.05588819	     -0.10314633	     -0.36891985	      0.69864148	     -0.75326789	     -2.73576203	      0.00000000	      0.00000000	     15.69711838	     -0.59107760	     -8.60345640	    -18.38620572	    -23.88747810	    -16.45838090	     94.29942490	     83.14769307	     -1.98614296	     14.76133444	      2.68663897	    -17.54211715	     49.45746431	     24.54453760	     62.24843853	     -4.61130193	     -5.85168508
